
<svg width="26" height="21" viewBox="0 0 26 21" fill="none" xmlns="http://www.w3.org/2000/svg">
<path fill-rule="evenodd" clip-rule="evenodd" d="M15.6109 19.6914L15.6187 17.0625C15.6187 16.7135 15.756 16.3789 16.0003 16.1321C16.2447 15.8853 16.5762 15.7467 16.9218 15.7467C17.2674 15.7467 17.5989 15.8853 17.8433 16.1321C18.0877 16.3789 18.225 16.7135 18.225 17.0625V19.6573C18.225 20.2886 18.225 20.6049 18.4252 20.7992C18.6266 20.9921 18.9321 20.979 19.547 20.9528C21.9687 20.8491 23.4571 20.5196 24.5048 19.4617C25.5577 18.4039 25.884 16.9011 25.9867 14.4519C26.0062 13.9663 26.0166 13.7222 25.9269 13.5608C25.8359 13.3993 25.4784 13.1972 24.7609 12.7916C24.3567 12.5641 24.02 12.2317 23.7856 11.8289C23.5513 11.426 23.4277 10.9672 23.4277 10.5C23.4277 10.0328 23.5513 9.574 23.7856 9.17113C24.02 8.76826 24.3567 8.43589 24.7609 8.20837C25.4784 7.80412 25.8372 7.60069 25.9269 7.43925C26.0166 7.27781 26.0062 7.035 25.9854 6.54806C25.884 4.09894 25.5564 2.59744 24.5048 1.53825C23.3648 0.3885 21.7035 0.0984376 18.8866 0.0249376C18.8004 0.0226588 18.7145 0.0378475 18.6342 0.0696075C18.5538 0.101368 18.4806 0.149055 18.4188 0.209856C18.357 0.270658 18.3079 0.343341 18.2744 0.423616C18.2409 0.503891 18.2236 0.590132 18.2237 0.67725V3.9375C18.2237 4.28647 18.0864 4.62114 17.842 4.8679C17.5976 5.11466 17.2661 5.25328 16.9205 5.25328C16.5749 5.25328 16.2434 5.11466 15.999 4.8679C15.7547 4.62114 15.6174 4.28647 15.6174 3.9375L15.6083 0.654938C15.6079 0.481117 15.5393 0.314534 15.4174 0.191747C15.2956 0.0689599 15.1305 -3.47641e-07 14.9583 0H10.393C5.4794 0 3.02258 -1.56462e-07 1.49519 1.53825C0.442267 2.59612 0.115991 4.09894 0.0132989 6.54806C-0.00619968 7.03369 -0.0165989 7.27781 0.0730945 7.43925C0.164088 7.60069 0.521562 7.80412 1.23911 8.20837C1.64329 8.43589 1.97997 8.76826 2.21435 9.17113C2.44873 9.574 2.57231 10.0328 2.57231 10.5C2.57231 10.9672 2.44873 11.426 2.21435 11.8289C1.97997 12.2317 1.64329 12.5641 1.23911 12.7916C0.521562 13.1972 0.162788 13.3993 0.0730945 13.5608C-0.0165989 13.7222 -0.00619978 13.965 0.0145987 14.4506C0.115991 16.9011 0.443567 18.4039 1.49519 19.4617C3.02258 21 5.4794 21 10.3943 21H14.3071C14.9206 21 15.2261 21 15.4172 20.8084C15.6083 20.6168 15.6096 20.3096 15.6109 19.6914ZM18.2237 11.8125V9.1875C18.2237 8.83853 18.0864 8.50386 17.842 8.2571C17.5976 8.01035 17.2661 7.87172 16.9205 7.87172C16.5749 7.87172 16.2434 8.01035 15.999 8.2571C15.7547 8.50386 15.6174 8.83853 15.6174 9.1875V11.8125C15.6174 12.1616 15.7547 12.4965 15.9992 12.7434C16.2437 12.9902 16.5754 13.1289 16.9212 13.1289C17.267 13.1289 17.5986 12.9902 17.8431 12.7434C18.0876 12.4965 18.2237 12.1616 18.2237 11.8125Z" fill="#DC5F00"/>
</svg>
